<svg width="27" height="28" viewBox="0 0 27 28" fill="none" xmlns="http://www.w3.org/2000/svg">
<path d="M2.56869 0.517207L0.12569 4.98015C-0.250185 5.63784 0.266603 6.43642 1.01838 6.43642H25.9173C26.6691 6.43642 27.1859 5.63781 26.81 4.93291L24.367 0.516788C24.1793 0.187774 23.8502 0 23.4743 0L3.46121 0.000327701C3.08534 0.000327701 2.75683 0.188194 2.56869 0.517207Z" fill="#703A0A"/>
<path d="M4.49481 28H22.5818C23.4272 28 24.0853 27.2954 24.0853 26.4965L24.085 9.39608C24.085 8.55062 23.3804 7.89258 22.5815 7.89258H4.49448C3.64902 7.89258 2.99098 8.59713 2.99098 9.39608V26.4965C2.94412 27.2951 3.64901 27.9997 4.49448 27.9997L4.49481 28ZM4.63572 11.5103C4.63572 10.9935 5.05846 10.6176 5.52841 10.6176H21.5013C22.0181 10.6176 22.394 11.0404 22.394 11.5103V21.141C22.394 21.6578 21.9713 22.0337 21.5013 22.0337H5.52841C5.01162 22.0337 4.63572 21.611 4.63572 21.141V11.5103Z" fill="#703A0A"/>
<path d="M6.04492 12.215H20.8903V20.3895H6.04492V12.215Z" fill="#703A0A"/>
</svg>
