<svg width="100" height="100" viewBox="0 0 100 100" fill="none" xmlns="http://www.w3.org/2000/svg">
<circle cx="50" cy="50" r="47" fill="white"/>
<g filter="url(#filter0_d_176_2088)">
<circle cx="49.5" cy="49.5" r="37.5" transform="rotate(-180 49.5 49.5)" fill="url(#paint0_linear_176_2088)"/>
<circle cx="49.5" cy="49.5" r="37" transform="rotate(-180 49.5 49.5)" stroke="url(#paint1_linear_176_2088)"/>
</g>
<path d="M53.798 33.8895C50.8039 35.0542 47.5993 36.6392 44.0001 38.3097C42.182 40.5512 41.7273 45.4822 41.2726 49.0686L46.2728 42.7929L50.8183 47.2758C48.5455 49.9654 46.2728 51.7586 47.1818 53.1033C48.0908 53.9998 49.4545 53.5515 50.8183 52.2068C54.9008 48.6289 57.6365 47.2758 57.6365 42.7933L64 39.6357V32.015C60.8721 31.8682 56.586 32.8185 53.7978 33.8905L53.798 33.8895ZM46.358 44.1516L41.9832 49.6288C41.6807 50.0079 41.0475 50.0689 40.6762 49.755L34 58.0339L41.4717 64.7582H46.8409L57.1819 53.1034L54.412 50.3718C53.5232 51.1271 52.5362 51.9077 51.4576 52.8514C51.4474 52.8614 51.4392 52.8699 51.429 52.8793C50.6852 53.607 49.9185 54.1363 49.071 54.3641C48.212 54.5951 47.2114 54.4073 46.5427 53.7478C46.5002 53.7053 46.4622 53.658 46.4292 53.6076C46.0532 53.0514 45.9983 52.3377 46.1737 51.7584C46.349 51.179 46.6813 50.665 47.0827 50.1474C47.7409 49.2985 48.6655 48.3329 49.5685 47.3175L46.358 44.1516ZM34 65.1871V66.9803L60.3638 67V65.2068L34 65.1871Z" fill="white"/>
<defs>
<filter id="filter0_d_176_2088" x="8" y="11" width="83" height="83" filterUnits="userSpaceOnUse" color-interpolation-filters="sRGB">
<feFlood flood-opacity="0" result="BackgroundImageFix"/>
<feColorMatrix in="SourceAlpha" type="matrix" values="0 0 0 0 0 0 0 0 0 0 0 0 0 0 0 0 0 0 127 0" result="hardAlpha"/>
<feOffset dy="3"/>
<feGaussianBlur stdDeviation="2"/>
<feComposite in2="hardAlpha" operator="out"/>
<feColorMatrix type="matrix" values="0 0 0 0 0 0 0 0 0 0 0 0 0 0 0 0 0 0 0.15 0"/>
<feBlend mode="normal" in2="BackgroundImageFix" result="effect1_dropShadow_176_2088"/>
<feBlend mode="normal" in="SourceGraphic" in2="effect1_dropShadow_176_2088" result="shape"/>
</filter>
<linearGradient id="paint0_linear_176_2088" x1="27.5" y1="12" x2="81" y2="82" gradientUnits="userSpaceOnUse">
<stop stop-color="#FF9559"/>
<stop offset="1" stop-color="#F8E71C"/>
</linearGradient>
<linearGradient id="paint1_linear_176_2088" x1="73" y1="87" x2="22.0024" y2="17.4983" gradientUnits="userSpaceOnUse">
<stop stop-color="white"/>
<stop offset="1" stop-color="white" stop-opacity="0.26"/>
</linearGradient>
</defs>
</svg>
