<svg width="100" height="100" viewBox="0 0 100 100" fill="none" xmlns="http://www.w3.org/2000/svg">
<circle cx="50" cy="50" r="47" fill="white"/>
<g filter="url(#filter0_d_176_2103)">
<circle cx="49.5" cy="49.5" r="37.5" fill="url(#paint0_linear_176_2103)"/>
<circle cx="49.5" cy="49.5" r="37" stroke="url(#paint1_linear_176_2103)"/>
</g>
<path d="M49.4762 40.3661C51.6976 40.3661 53.4984 38.4933 53.4984 36.183C53.4984 33.8728 51.6976 32 49.4762 32C47.2549 32 45.4541 33.8728 45.4541 36.183C45.4541 38.4933 47.2549 40.3661 49.4762 40.3661Z" fill="white"/>
<path d="M51.9336 41.0096H47.0192C45.7141 40.9541 44.4403 41.4189 43.4777 42.302C42.5152 43.1851 41.9425 44.4141 41.8855 45.7192V52.0815C41.8919 52.832 42.13 53.5622 42.5672 54.1722C43.0044 54.7822 43.6194 55.2422 44.328 55.4894V63.9724C44.2992 64.7268 44.5632 65.4632 45.0648 66.0274C45.5664 66.5917 46.2666 66.9402 47.0192 67H51.9336C52.6861 66.9402 53.3864 66.5917 53.888 66.0274C54.3896 65.4632 54.6535 64.7268 54.6247 63.9724V55.4894C55.3288 55.2439 55.9405 54.7883 56.3773 54.1841C56.8141 53.5799 57.0549 52.8562 57.0673 52.1107V45.7192C57.0103 44.4141 56.4376 43.1851 55.475 42.302C54.5124 41.4189 53.2387 40.9541 51.9336 41.0096ZM34.8504 41.5362C35.3368 41.5536 35.8174 41.4254 36.2305 41.1679C36.6435 40.9103 36.9702 40.5352 37.1686 40.0907C37.367 39.6463 37.4281 39.1526 37.344 38.6732C37.2599 38.1937 37.0344 37.7504 36.6966 37.3999C36.3588 37.0495 35.9239 36.808 35.4479 36.7064C34.9718 36.6048 34.4763 36.6478 34.0248 36.8298C33.5734 37.0118 33.1866 37.3246 32.9141 37.7279C32.6417 38.1313 32.4959 38.6069 32.4956 39.0936C32.4898 39.4086 32.5461 39.7217 32.6613 40.0149C32.7765 40.3082 32.9483 40.5759 33.167 40.8027C33.3857 41.0295 33.6469 41.211 33.9357 41.3369C34.2246 41.4627 34.5354 41.5304 34.8504 41.5362ZM36.6055 42.7062H33.0953C32.0627 42.6584 31.0529 43.0204 30.2859 43.7134C29.5189 44.4065 29.0568 45.3744 29 46.4066V50.7944C29.0085 51.4363 29.2279 52.0575 29.6244 52.5623C30.0209 53.0671 30.5724 53.4276 31.1939 53.588V59.1605C31.1532 59.789 31.3599 60.4086 31.7698 60.8868C32.1798 61.3651 32.7604 61.6641 33.3878 61.72H36.4446C36.7619 61.696 37.0713 61.6095 37.355 61.4655C37.6387 61.3214 37.8911 61.1227 38.0978 60.8808C38.3044 60.6388 38.4611 60.3584 38.5589 60.0556C38.6568 59.7528 38.6938 59.4337 38.6678 59.1166V53.5002C39.2523 53.3131 39.7631 52.9469 40.1279 52.4534C40.4928 51.9599 40.6932 51.3642 40.7008 50.7505V46.3627C40.633 45.3384 40.166 44.3815 39.4002 43.6978C38.6344 43.014 37.631 42.658 36.6055 42.7062ZM64.1024 41.5362C64.5888 41.5536 65.0694 41.4254 65.4825 41.1679C65.8955 40.9103 66.2222 40.5352 66.4206 40.0907C66.619 39.6463 66.6801 39.1526 66.596 38.6732C66.5119 38.1937 66.2864 37.7504 65.9486 37.3999C65.6107 37.0495 65.1759 36.808 64.6999 36.7064C64.2238 36.6048 63.7283 36.6478 63.2768 36.8298C62.8254 37.0118 62.4386 37.3246 62.1661 37.7279C61.8937 38.1313 61.7479 38.6069 61.7476 39.0936C61.7418 39.4086 61.7981 39.7217 61.9133 40.0149C62.0285 40.3082 62.2003 40.5759 62.419 40.8027C62.6377 41.0295 62.8989 41.211 63.1877 41.3369C63.4766 41.4627 63.7874 41.5304 64.1024 41.5362ZM65.8575 42.7062H62.3473C61.3146 42.6584 60.3049 43.0204 59.5379 43.7134C58.7709 44.4065 58.3087 45.3744 58.252 46.4066V50.7944C58.2605 51.4363 58.4799 52.0575 58.8764 52.5623C59.2728 53.0671 59.8244 53.4276 60.4459 53.588V59.1605C60.4052 59.789 60.6119 60.4086 61.0218 60.8868C61.4318 61.3651 62.0124 61.6641 62.6398 61.72H65.6674C65.9846 61.696 66.294 61.6095 66.5777 61.4655C66.8615 61.3214 67.1139 61.1227 67.3205 60.8808C67.5271 60.6388 67.6839 60.3584 67.7817 60.0556C67.8795 59.7528 67.9165 59.4337 67.8905 59.1166V53.5002C68.4805 53.3182 68.9977 52.9541 69.3681 52.4602C69.7385 51.9663 69.9432 51.3678 69.9528 50.7505V46.3627C69.885 45.3384 69.418 44.3815 68.6522 43.6978C67.8864 43.014 66.883 42.658 65.8575 42.7062Z" fill="white"/>
<defs>
<filter id="filter0_d_176_2103" x="8" y="11" width="83" height="83" filterUnits="userSpaceOnUse" color-interpolation-filters="sRGB">
<feFlood flood-opacity="0" result="BackgroundImageFix"/>
<feColorMatrix in="SourceAlpha" type="matrix" values="0 0 0 0 0 0 0 0 0 0 0 0 0 0 0 0 0 0 127 0" result="hardAlpha"/>
<feOffset dy="3"/>
<feGaussianBlur stdDeviation="2"/>
<feComposite in2="hardAlpha" operator="out"/>
<feColorMatrix type="matrix" values="0 0 0 0 0 0 0 0 0 0 0 0 0 0 0 0 0 0 0.15 0"/>
<feBlend mode="normal" in2="BackgroundImageFix" result="effect1_dropShadow_176_2103"/>
<feBlend mode="normal" in="SourceGraphic" in2="effect1_dropShadow_176_2103" result="shape"/>
</filter>
<linearGradient id="paint0_linear_176_2103" x1="27.5" y1="12" x2="78" y2="78" gradientUnits="userSpaceOnUse">
<stop stop-color="#FF76A3"/>
<stop offset="1" stop-color="#FF125C"/>
</linearGradient>
<linearGradient id="paint1_linear_176_2103" x1="28.5" y1="12" x2="75" y2="83" gradientUnits="userSpaceOnUse">
<stop stop-color="white"/>
<stop offset="1" stop-color="white" stop-opacity="0.57"/>
</linearGradient>
</defs>
</svg>
