<svg width="100" height="100" viewBox="0 0 100 100" fill="none" xmlns="http://www.w3.org/2000/svg">
<circle cx="50" cy="50" r="47" fill="white"/>
<g filter="url(#filter0_d_176_2094)">
<circle cx="49.5" cy="49.5" r="37.5" fill="url(#paint0_linear_176_2094)"/>
<circle cx="49.5" cy="49.5" r="37" stroke="url(#paint1_linear_176_2094)"/>
</g>
<path d="M35.2109 32.6465L32.1571 38.2252C31.6873 39.0473 32.3333 40.0455 33.273 40.0455H64.3967C65.3363 40.0455 65.9823 39.0473 65.5125 38.1661L62.4588 32.646C62.2241 32.2347 61.8128 32 61.3429 32L36.3265 32.0004C35.8567 32.0004 35.446 32.2352 35.2109 32.6465Z" fill="white"/>
<path d="M37.6184 67H60.2271C61.2839 67 62.1065 66.1193 62.1065 65.1206L62.1061 43.7451C62.1061 42.6883 61.2254 41.8657 60.2267 41.8657H37.618C36.5612 41.8657 35.7386 42.7464 35.7386 43.7451V65.1206C35.68 66.1189 36.5611 66.9996 37.618 66.9996L37.6184 67ZM37.7945 46.3879C37.7945 45.7419 38.3229 45.272 38.9104 45.272H58.8765C59.5225 45.272 59.9924 45.8004 59.9924 46.3879V58.4263C59.9924 59.0723 59.464 59.5422 58.8765 59.5422H38.9104C38.2644 59.5422 37.7945 59.0137 37.7945 58.4263V46.3879Z" fill="white"/>
<path d="M39.5566 47.2688H58.1134V57.4868H39.5566V47.2688Z" fill="white"/>
<defs>
<filter id="filter0_d_176_2094" x="8" y="11" width="83" height="83" filterUnits="userSpaceOnUse" color-interpolation-filters="sRGB">
<feFlood flood-opacity="0" result="BackgroundImageFix"/>
<feColorMatrix in="SourceAlpha" type="matrix" values="0 0 0 0 0 0 0 0 0 0 0 0 0 0 0 0 0 0 127 0" result="hardAlpha"/>
<feOffset dy="3"/>
<feGaussianBlur stdDeviation="2"/>
<feComposite in2="hardAlpha" operator="out"/>
<feColorMatrix type="matrix" values="0 0 0 0 0 0 0 0 0 0 0 0 0 0 0 0 0 0 0.15 0"/>
<feBlend mode="normal" in2="BackgroundImageFix" result="effect1_dropShadow_176_2094"/>
<feBlend mode="normal" in="SourceGraphic" in2="effect1_dropShadow_176_2094" result="shape"/>
</filter>
<linearGradient id="paint0_linear_176_2094" x1="27.5" y1="12" x2="81" y2="82" gradientUnits="userSpaceOnUse">
<stop stop-color="#15D2BB"/>
<stop offset="1" stop-color="#2DC9EA"/>
</linearGradient>
<linearGradient id="paint1_linear_176_2094" x1="30" y1="17.5" x2="72.5" y2="84" gradientUnits="userSpaceOnUse">
<stop stop-color="white"/>
<stop offset="1" stop-color="white" stop-opacity="0.31"/>
</linearGradient>
</defs>
</svg>
